<svg fill="none" height="32" viewBox="0 0 32 32" width="32" xmlns="http://www.w3.org/2000/svg"><path d="m21.744 14.6329c-.5422 0-.9369.2187-1.1876.656-.2506.4373-.3751 1.216-.3751 2.3342v.7805c0 1.1111.1174 1.888.3538 2.3288.2365.4409.6347.6614 1.1982.6614.5831 0 1.024-.2596 1.3227-.7805v-5.1466c-.2898-.5547-.7271-.8338-1.312-.8338zm6.7004-14.6329h-24.88884c-1.96267 0-3.55556 1.59111-3.55556 3.55556v24.88884c0 1.9645 1.59289 3.5556 3.55556 3.5556h24.88884c1.9627 0 3.5556-1.5911 3.5556-3.5556v-24.88884c0-1.96445-1.5929-3.55556-3.5556-3.55556zm-15.5128 23.6444-2.0836-5.3013-2.07111 5.3013h-3.55378l3.64622-7.6462-3.57333-7.51998h3.51111l2.04089 5.20888 2.0409-5.20888h3.5111l-3.5627 7.51998 3.6463 7.6462zm13.0951 0h-2.6774l-.1351-1.1466c-.6044.9031-1.3813 1.3546-2.3342 1.3546-1.1804 0-2.0818-.4515-2.704-1.3546s-.9387-2.2294-.9529-3.9787v-.8533c0-1.8471.3129-3.2249.9369-4.1351.624-.9103 1.5342-1.3654 2.7289-1.3654.8675 0 1.5911.3751 2.1671 1.1254v-5.64626h2.9689v15.99996z" fill="#000"/></svg>