<svg fill="none" height="32" viewBox="0 0 32 32" width="32" xmlns="http://www.w3.org/2000/svg"><path d="m2.90909 0c-1.60727 0-2.90909 1.30182-2.90909 2.90909v26.18181c0 1.6073 1.30182 2.9091 2.90909 2.9091h26.18181c1.6073 0 2.9091-1.3018 2.9091-2.9091v-26.18181c0-1.60727-1.3018-2.90909-2.9091-2.90909zm19.86931 7.63352c.9047 0 1.5227.57673 1.5227 1.36364s-.618 1.36364-1.5227 1.36364c-.8945 0-1.5199-.57673-1.5199-1.36364s.6254-1.36364 1.5199-1.36364zm-11.4432 1.02557h2.8836l5.0994 14.34941h-2.7529l-1.213-3.6676h-5.2784l-1.23583 3.6676h-2.59375zm1.3012 2.73291-1.9659 5.9177h4.0852l-1.9489-5.9177zm8.9204.7387h2.4546v10.8778h-2.4546z" fill="#000"/></svg>