<svg fill="none" height="32" viewBox="0 0 32 32" width="32" xmlns="http://www.w3.org/2000/svg"><path d="m10.2396 1.63672c-.81468 0-1.57027.18237-2.2396.56771-2.09183 1.20772-2.88805 4.15083-2.46615 7.81507-3.38358 1.4668-5.53385 3.6266-5.53385 6.0417s2.15027 4.5749 5.53385 6.0417c-.42168 3.6641.37432 6.6073 2.46615 7.8151.668.3853 1.42358.5677 2.2396.5677 1.7368 0 3.7442-.8717 5.7604-2.3672 2.0164 1.4955 4.0262 2.3672 5.763 2.3672.8147 0 1.5703-.1824 2.2396-.5677 2.0918-1.2077 2.888-4.1509 2.4662-7.8151 3.3823-1.4668 5.5312-3.6271 5.5312-6.0417 0-2.4151-2.1503-4.5749-5.5339-6.0417.4217-3.6641-.3743-6.60735-2.4661-7.81507-.668-.38667-1.4236-.56771-2.2396-.56771-1.7368 0-3.7442.87169-5.7604 2.36719-2.0163-1.4955-4.0242-2.36719-5.7604-2.36719zm0 2.33333c1.0422 0 2.4203.55415 3.9167 1.58073-.8798.83025-1.7414 1.77433-2.5704 2.82552-1.3445.19279-2.6121.47382-3.78642.82552-.00631-.08143-.02124-.16689-.02604-.24739-.14267-2.37334.37856-4.1425 1.39323-4.72917.3-.17333.65025-.25521 1.07293-.25521zm11.5208 0c.4214 0 .7729.08188 1.0729.25521 1.0147.58533 1.5359 2.35583 1.3933 4.72917-.0049.0805-.0197.16596-.0261.24739-1.175-.35192-2.4436-.63272-3.789-.82552-.829-1.05105-1.688-1.99537-2.5677-2.82552 1.4962-1.02641 2.875-1.58073 3.9166-1.58073zm-5.7604 3.0625c.3614.32898.7204.67669 1.0833 1.05729-.3597-.01208-.7175-.02864-1.0833-.02864-.365 0-.7219.01662-1.0807.02864.3626-.3802.7196-.72862 1.0807-1.05729zm0 3.36195c1.1049 0 2.1522.0618 3.1458.1693.606.8237 1.2032 1.6945 1.7631 2.6641.5365.9293 1.011 1.8806 1.4296 2.8333-.4186.9533-.8927 1.906-1.4296 2.8359-.5581.9668-1.1539 1.832-1.7579 2.6537-1.0287.1125-2.084.1771-3.151.1771-1.1049 0-2.1522-.0618-3.1458-.1693-.606-.8237-1.2032-1.6919-1.7631-2.6615-.5369-.9299-1.0108-1.8826-1.42964-2.8359.41854-.9527.89314-1.904 1.42964-2.8333.5583-.9668 1.1537-1.8346 1.7579-2.6563 1.0287-.1125 2.084-.1771 3.151-.1771zm6.3281.7214c.529.1277 1.0376.2656 1.5157.4193-.1084.4894-.2408.9881-.3907 1.4921-.1715-.3219-.3379-.6449-.5234-.9661-.1908-.3304-.4027-.6273-.6016-.9453zm-12.65883.0026c-.1982.3171-.40873.6134-.59896.9427-.18542.3213-.35191.6441-.52343.9661-.1502-.505-.28481-1.0044-.39323-1.4947.48684-.1539.99412-.2901 1.51562-.4141zm-3.71094 1.2708c.28093 1.1862.67064 2.4158 1.17188 3.6693-.50017 1.2505-.88825 2.4779-1.16927 3.6615-2.32196-1.1213-3.62761-2.5171-3.62761-3.6589 0-1.172 1.26917-2.5076 3.39584-3.5703.07259-.0363.15499-.0661.22916-.1016zm20.08077.013c2.3219 1.1213 3.6276 2.5171 3.6276 3.6589 0 1.172-1.2692 2.5076-3.3959 3.5703-.0726.0363-.155.0661-.2291.1016-.2811-1.1869-.6676-2.4176-1.1693-3.6719.4996-1.2495.8859-2.4763 1.1667-3.6589zm-10.0391.9922c-1.4733 0-2.6667 1.1934-2.6667 2.6667s1.1934 2.6667 2.6667 2.6667 2.6667-1.1934 2.6667-2.6667-1.1934-2.6667-2.6667-2.6667zm-7.45312 5.7006c.17163.322.34049.6448.52604.9661.19063.3302.4003.6275.59896.9453-.529-.1277-1.03755-.2656-1.51563-.4193.10839-.4897.24064-.9878.39063-1.4921zm14.90622.0026c.1501.5045.2849 1.0022.3933 1.4921-.4869.1539-.9942.2901-1.5157.4141.1982-.3171.4088-.6134.599-.9427.185-.3206.3522-.6422.5234-.9635zm-15.65362 3.8229c1.17505.3519 2.44362.6327 3.78902.8255.8292 1.0516 1.6876 1.9977 2.5678 2.8281-1.4962 1.0263-2.8746 1.5807-3.9167 1.5807-.42135 0-.77293-.0844-1.07293-.2578-1.01467-.5853-1.5359-2.3532-1.39323-4.7265.00488-.0814.01962-.1677.02604-.25zm16.40102 0c.0064.0823.0212.1686.0261.25.1426 2.3733-.3786 4.1399-1.3933 4.7265-.3.1734-.6502.2578-1.0729.2578-1.0421 0-2.4205-.5542-3.9166-1.5807.8802-.8305 1.7409-1.7764 2.5703-2.8281 1.3445-.1928 2.6121-.4738 3.7864-.8255zm-9.2838 1.112c.3597.012.7175.0286 1.0833.0286s.7236-.0166 1.0833-.0286c-.3629.3806-.7219.7283-1.0833 1.0572-.3614-.3289-.7204-.6766-1.0833-1.0572z" fill="#000"/></svg>