<svg fill="none" height="19" viewBox="0 0 115 19" width="115" xmlns="http://www.w3.org/2000/svg"><path d="m1.91193.545454v17.454546h-1.593748v-17.454546zm3.95029 17.454546v-1.2017l9.69038-14.82103h-9.74152v-1.431816h11.64202v1.201706l-9.69884 14.82104h9.78414v1.4318zm14.83598 0v-1.2017l9.6903-14.82103h-9.7415v-1.431816h11.6421v1.201706l-9.6989 14.82104h9.7841v1.4318zm13.8899-17.454546h1.8409l5.1733 8.284096h.1534l5.1733-8.284096h1.8409l-6.2983 9.894846v7.5597h-1.5852v-7.5597zm22.5618 17.454546h-6.1875v-17.454546h6.2386c1.7557 0 3.267.349432 4.5341 1.048296 1.267.69318 2.2415 1.69034 2.9233 2.99148.6875 1.30113 1.0312 2.85795 1.0312 4.67045 0 1.81822-.3437 3.38072-1.0312 4.68752-.6818 1.3068-1.662 2.3096-2.9404 3.0085-1.2727.6989-2.7954 1.0483-4.5681 1.0483zm-2.4972-3.1619h2.3437c1.091 0 2.0086-.1932 2.7529-.5796.75-.392 1.3125-.9971 1.6875-1.8153.3807-.8239.571-1.8864.571-3.18752 0-1.28977-.1903-2.34375-.571-3.16193-.375-.81818-.9347-1.42045-1.679-1.80682-.7443-.38636-1.6619-.57954-2.7528-.57954h-2.3523zm13.7706 3.1619v-17.454546h11.7614v3.042616h-8.0711v4.15909h7.4659v3.04264h-7.4659v4.1676h8.1052v3.0426zm17.8487-17.454546 4.2188 13.261346h.1619l4.2273-13.261346h4.0909l-6.0171 17.454546h-4.7556l-6.0256-17.454546zm24.268 5.019886c-.068-.6875-.36-1.22159-.877-1.60227s-1.219-.57103-2.105-.57103c-.603 0-1.111.08523-1.526.25569-.415.16477-.733.39488-.955.69034-.215.29545-.323.63068-.323 1.00568-.012.3125.054.58523.196.81818.147.23296.349.43466.605.60512.255.16477.551.30965.886.43465.335.11932.693.2216 1.074.30682l1.568.375c.761.17046 1.46.39773 2.097.68182.636.28409 1.187.63352 1.653 1.0483.466.41476.827.90336 1.082 1.46586.262.5625.395 1.2074.401 1.9347-.006 1.0682-.278 1.9943-.818 2.7784-.534.7784-1.307 1.3835-2.318 1.8154-1.006.4261-2.219.6392-3.64.6392-1.409 0-2.636-.216-3.681-.6478-1.04-.4318-1.853-1.071-2.438-1.9176-.579-.8523-.883-1.9062-.912-3.1619h3.571c.04.5852.208 1.0738.503 1.4659.301.3864.702.679 1.202.8778.505.1932 1.077.2898 1.713.2898.625 0 1.167-.0909 1.628-.2727.466-.1818.826-.4347 1.082-.7585.256-.3239.384-.6961.384-1.1165 0-.3921-.117-.7216-.35-.9887-.227-.267-.562-.4943-1.005-.6818-.438-.1875-.975-.3579-1.611-.5113l-1.901-.4773c-1.471-.35796-2.633-.91762-3.486-1.67899-.852-.76136-1.275-1.78693-1.27-3.0767-.005-1.05682.276-1.98011.844-2.76989.574-.78977 1.361-1.40625 2.361-1.849429 1-.443182 2.136-.664773 3.409-.664773 1.296 0 2.426.221591 3.392.664773.972.443179 1.727 1.059659 2.267 1.849429.54.78978.818 1.70455.835 2.74432z" fill="#000"/></svg>