<svg fill="none" height="32" viewBox="0 0 32 32" width="32" xmlns="http://www.w3.org/2000/svg"><path d="m2.90909 0c-1.60727 0-2.90909 1.30182-2.90909 2.90909v26.18181c0 1.6073 1.30182 2.9091 2.90909 2.9091h26.18181c1.6073 0 2.9091-1.3018 2.9091-2.9091v-26.18181c0-1.60727-1.3018-2.90909-2.9091-2.90909zm2.90909 8.71591h5.78692c2.864 0 4.8239 1.95919 4.8239 4.85229 0 2.8436-2.0314 4.7926-4.9347 4.7926h-3.11078v4.7045h-2.56534zm2.56534 2.14769v5.3694h2.53698c1.8298 0 2.9034-.9543 2.9034-2.6648 0-1.7586-1.0462-2.7046-2.8949-2.7046zm13.73578 1.1023c2.5847 0 4.2075 1.144 4.3864 3.1222h-2.3154c-.1789-.7651-.9062-1.2529-2.0596-1.2529-1.1229 0-1.9688.5384-1.9688 1.3239 0 .6167.517.9942 1.6108 1.2415l1.9176.4375c2.0786.4669 3.0427 1.363 3.0427 2.963 0 2.0902-1.9194 3.483-4.6336 3.483-2.7141 0-4.4245-1.1752-4.6136-3.1534h2.4375c.2385.8058 1.0023 1.2841 2.2358 1.2841 1.2422 0 2.1079-.5465 2.1079-1.3523 0-.6167-.4658-1.006-1.5-1.2358l-1.9289-.446c-2.0888-.4771-3.0711-1.4417-3.0711-3.0824 0-1.9695 1.7865-3.3324 4.3523-3.3324z" fill="#000"/></svg>