<svg fill="none" height="32" viewBox="0 0 32 32" width="32" xmlns="http://www.w3.org/2000/svg"><path d="m15.7391 0v9.73913h-4.8695c-2.68177 0-4.8696-2.18783-4.8696-4.86956 0-2.68174 2.18783-4.86957 4.8696-4.86957zm0 11.1304v9.7392h-4.8695c-2.68177 0-4.8696-2.1879-4.8696-4.8696s2.18783-4.8696 4.8696-4.8696zm0 11.1305v4.8695c0 2.6818-2.1878 4.8696-4.8695 4.8696-2.68177 0-4.8696-2.1878-4.8696-4.8696 0-2.6817 2.18783-4.8695 4.8696-4.8695zm11.1305-17.39133c0 2.68173-2.1879 4.86956-4.8696 4.86956h-4.8696v-9.73913h4.8696c2.6817 0 4.8696 2.18783 4.8696 4.86957zm-4.8696 6.26083c-1.2915 0-2.5301.5131-3.4433 1.4263s-1.4263 2.1518-1.4263 3.4433.5131 2.5301 1.4263 3.4433 2.1518 1.4263 3.4433 1.4263 2.5301-.5131 3.4433-1.4263 1.4263-2.1518 1.4263-3.4433-.5131-2.5301-1.4263-3.4433-2.1518-1.4263-3.4433-1.4263z" fill="#000"/></svg>