<svg fill="none" height="32" viewBox="0 0 32 32" width="32" xmlns="http://www.w3.org/2000/svg"><path d="m29.815.226087c-.1341-.144-.3226-.226087-.5211-.226087h-27.58782c-.19841 0-.38693.082087-.52109.226087-.13415.144-.199819.337391-.18217.531478l2.4854 27.427435c.02612.2867.22877.528.50978.6073l11.3043 3.1813c.0628.0174.1285.0264.1935.0264.0649 0 .1306-.009.1934-.0264l11.3142-3.1813c.281-.0793.4837-.3206.5098-.6073l2.484-27.427435c.0177-.194087-.0487-.387478-.1822-.531478zm-23.494 18.559313 4.9425 1.3509v-13.87543h2.8244v18.08693l-7.7669-2.1224zm18.3961-4.8724-.7442 8.5218-7.0607 1.913v-3.2007l4.766-1.2904.1765-2.6087-4.9425.839v-11.82613h8.4729l-.2436 2.78261h-5.405v5.56522z" fill="#000"/></svg>