<svg fill="none" height="32" viewBox="0 0 32 32" width="32" xmlns="http://www.w3.org/2000/svg"><path d="m16.5589 2.00159c-.1358-.01205-.2737-.0119-.412.00272-.5549.06058-1.0525.33386-1.402.76832-.722.89746-.5786 2.21527.3195 2.93727l2.2982 1.84804h-11.81985c-1.15159 0-2.08873.93715-2.08873 2.08873 0 1.15163.93714 2.08873 2.08873 2.08873h5.17695l-9.914672 8.0136c-.45047.3641-.7315238.882-.7927932 1.4578-.0605732.5758.1050132 1.1419.4691482 1.5923.364136.4505.881967.7316 1.457757.7928.5758.0606 1.14192-.105 1.59239-.4691l4.82203-3.8973c.40312 5.5288 5.54624 9.916 11.81034 9.916 6.5265 0 11.8361-4.763 11.8361-10.6177 0-3.6177-2.0254-6.9476-5.4217-8.91656l-8.8962-7.15282c-.3263-.26213-.7158-.41667-1.1232-.45283zm3.605 10.43001c3.4547 0 6.2662 2.3422 6.2662 5.2219 0 2.8796-2.8115 5.2218-6.2662 5.2218-3.4548 0-6.2662-2.3422-6.2662-5.2218 0-2.8797 2.8114-5.2219 6.2662-5.2219zm0 1.3925c-1.108 0-2.1705.3668-2.954 1.0197-.7834.6528-1.2235 1.5383-1.2235 2.4615 0 .9233.4401 1.8088 1.2235 2.4616.7835.6529 1.846 1.0197 2.954 1.0197 1.1079 0 2.1704-.3668 2.9539-1.0197.7834-.6528 1.2235-1.5383 1.2235-2.4616 0-.9232-.4401-1.8087-1.2235-2.4615-.7835-.6529-1.846-1.0197-2.9539-1.0197z" fill="#000"/></svg>