<svg fill="none" height="32" viewBox="0 0 32 32" width="32" xmlns="http://www.w3.org/2000/svg"><path d="m16 0c-8.836 0-16 7.27618-16 16.2505 0 7.6148 5.16267 13.9863 12.1227 15.7495-.0747-.2194-.1227-.474-.1227-.7895v-2.7775c-.6493 0-1.7373 0-2.01067 0-1.09466 0-2.068-.478-2.54-1.3664-.524-.9872-.61466-2.4972-1.91333-3.4207-.38533-.3074-.092-.6582.352-.6108.82.2357 1.5.8071 2.14 1.6549.63733.8491.93733 1.0414 2.128 1.0414.5773 0 1.4413-.0339 2.2547-.1639.4373-1.1281 1.1933-2.1667 2.1173-2.657-5.328-.5565-7.87067-3.2487-7.87067-6.9037 0-1.5736.66-3.0958 1.78134-4.3782-.368-1.2729-.83067-3.86897.14133-4.85755 2.3973 0 3.8467 1.57901 4.1947 2.00559 1.1946-.41574 2.5066-.65137 3.8853-.65137 1.3813 0 2.6987.23563 3.896.65408.344-.42387 1.7947-2.0083 4.1973-2.0083.976.98993.508 3.59675.136 4.86705 1.1147 1.2797 1.7707 2.7978 1.7707 4.3687 0 3.6523-2.5387 6.3431-7.8587 6.9024 1.464.7759 2.532 2.9562 2.532 4.5989v3.7024c0 .1408-.0306.2424-.0466.3629 6.2346-2.2195 10.7133-8.2322 10.7133-15.3229 0-8.97432-7.164-16.2505-16-16.2505z" fill="#000"/></svg>