<svg fill="none" height="32" viewBox="0 0 32 32" width="32" xmlns="http://www.w3.org/2000/svg"><path d="m15.2704 1c-4.4857 0-7.99969 5.21039-7.99969 11.8603 0 3.0108.73026 5.7126 1.93458 7.7809-.06836.2313-.11648.4685-.11648.7215 0 1.4051 1.14029 2.5454 2.54539 2.5454 1.405 0 2.5453-1.1403 2.5453-2.5454 0-1.405-1.1403-2.5453-2.5453-2.5453-.035 0-.0674.0099-.1023.0114-.8291-1.5971-1.3522-3.6923-1.3522-5.9685 0-4.85217 2.3315-8.95134 5.0907-8.95134 1.8704 0 3.5416 1.88635 4.4259 4.6106 1.0807.17308 2.158.46859 3.23.83803-.9862-4.88851-3.9965-8.35759-7.6559-8.35759zm-.1818 9.4541c-1.4051 0-2.5454 1.1403-2.5454 2.5454 0 1.405 1.1403 2.5453 2.5454 2.5453.9992 0 1.8551-.5797 2.2726-1.4175 1.8806.0843 3.9734.6297 5.9486 1.6988 2.8508 1.5446 5.0012 3.9152 5.6077 6.19.3127 1.168.2012 2.1944-.3239 3.0482-1.0443 1.6988-3.5396 2.379-6.386 2.0198-.8422.8596-1.8036 1.6494-2.8465 2.3635 1.4545.4247 2.8956.6449 4.2526.6449 3.2494 0 6.0317-1.1857 7.4571-3.5027.9483-1.5418 1.1755-3.3819.6562-5.3236-.8203-3.0646-3.4514-6.0566-7.0338-7.9968-2.6166-1.4182-5.3397-2.0783-7.8036-2.0681-.4611-.4626-1.0971-.7472-1.801-.7472zm-10.58481 4.7157c-2.12355 1.7585-3.646618 3.9045-4.232774 6.0964-.51925 1.9417-.292101 3.7819.656221 5.3208 1.422483 2.3169 4.206293 3.5026 7.457063 3.5026 2.461 0 5.1887-.6742 7.7951-2.0879 2.4872-1.3469 4.4968-3.2037 5.7782-5.2356 1.1621-.2356 2.0397-1.2623 2.0397-2.4942 0-1.405-1.1404-2.5454-2.5454-2.5454s-2.5453 1.1404-2.5453 2.5454c0 .4741.1395.9143.3664 1.2954-1.0283 1.4763-2.5935 2.8581-4.477 3.8777-4.5366 2.4566-9.75669 2.2811-11.39444-.3835-.52507-.8538-.63372-1.8774-.32101-3.0454.31708-1.1854 1.05946-2.3972 2.0965-3.5055-.31708-1.0545-.54236-2.1728-.67326-3.3408z" fill="#000"/></svg>