<svg fill="none" height="32" viewBox="0 0 32 32" width="32" xmlns="http://www.w3.org/2000/svg"><path d="m28.6786 1.43084c-.2401-.27429-.5826-.43084-.9415-.43084h-24.47337c-.3589 0-.70137.15655-.94148.43084s-.35384.64045-.31467 1.0053l1.39137 12.82376 1.39136 12.8237c.05561.5214.41577.9574.90863 1.101l9.45266 2.7649c.1138.0337.2313.0505.3475.0505.1163 0 .2338-.0168.3476-.0505l9.4527-2.7649c.4928-.1436.8517-.5796.9086-1.101l2.784-25.64746c.0404-.36485-.0733-.73101-.3134-1.0053zm-6.2075 12.60316-.5636 9.4255-6.3666 2.1309-6.36671-2.1309-.24137-4.5077h3.22248l.0809 2.0494 3.3047 1.1476 3.3046-1.1476.2414-3.6874h-7.0921l-.1605-3.2785h7.4143l.2414-3.2786h-11.12207l-.24137-3.27982h14.74774z" fill="#000"/></svg>