<svg fill="none" height="32" viewBox="0 0 32 32" width="32" xmlns="http://www.w3.org/2000/svg" xmlns:xlink="http://www.w3.org/1999/xlink"><clipPath id="a"><path d="m0 0h32v32h-32z"/></clipPath><g clip-path="url(#a)"><path d="m29.5365 1.14592c-.2466-.276849-.5984-.43486-.967-.43486h-25.13811c-.36865 0-.72042.158011-.96705.43486-.24663.27684-.36346.64641-.32322 1.01467l2.85831 25.88651c.05712.5262.42706.9663.9333 1.1113l9.70947 2.7906c.1168.034.2375.0509.3569.0509s.2402-.0169.357-.0509l9.7094-2.7906c.5063-.145.8749-.5851.9333-1.1113l2.8596-25.88651c.0416-.36826-.0753-.73783-.3219-1.01467zm-6.2293 9.26778h-11.5916l.2751 3.3196h11.0374l-.8282 9.8072-6.1956 1.9823-.061-.0196-6.1268-1.9654-.33489-3.9959h3.00109l.1311 1.5526 3.423.7588 3.3632-.7601.357-4.1958h-10.50126l-.81258-9.65694h15.13404z" fill="#000"/></g></svg>